<?xml version="1.0" encoding="UTF-8" standalone="no"?>
<!-- Created with Inkscape (http://www.inkscape.org/) -->

<svg
   width="205.48563mm"
   height="249.46931mm"
   viewBox="0 0 205.48563 249.46931"
   version="1.1"
   id="svg1"
   xml:space="preserve"
   xmlns="http://www.w3.org/2000/svg"
   xmlns:svg="http://www.w3.org/2000/svg"><defs
     id="defs1" /><g
     id="layer1"
     transform="translate(-1.810353,-44.573011)"><path
       style="fill:whilte;opacity: .4; stroke-width:0.666254"
       d="m 1.8182158,293.97359 c -0.051679,-13.32667 0.061188,-57.30139 3.2119759,-70.47477 1.9137637,-8.21732 9.3087893,-11.98423 9.3087893,-11.98423 5.852363,-3.64312 10.268623,-4.67953 25.228372,-10.56837 15.329798,-6.03452 14.865288,-6.6427 17.572879,-8.01449 4.136423,-2.09574 1.519082,-0.79043 8.766939,-5.53382 l 0.412167,-0.91413 c 1.590208,-3.52683 2.523782,-11.84728 2.096428,-18.68433 -0.138058,-2.20872 -0.253779,-2.46423 -1.306506,-2.88473 -0.334144,-0.13348 -1.05903,-0.68028 -1.61086,-1.21516 -0.763801,-0.7403 -1.138144,-1.29327 -1.568054,-2.31632 -0.310601,-0.73912 -0.565173,-1.44775 -0.565718,-1.57473 -5.46e-4,-0.12699 -0.08016,-0.51167 -0.176934,-0.85485 -0.156393,-0.55466 -0.281234,-0.65669 -1.123509,-0.91826 -3.370334,-1.04668 -9.197536,-5.98052 -12.442999,-10.5354 -3.360548,-4.71639 -5.099965,-10.23514 -4.770609,-15.13596 0.07372,-1.097 0.05747,-1.15324 -0.403501,-1.39628 -0.801572,-0.42265 -1.996224,-1.88061 -2.40655,-2.93699 -0.410286,-1.05625 -0.549822,-2.99016 -0.28822,-3.99457 0.127984,-0.49137 0.09689,-0.55865 -0.304023,-0.65779 -0.669212,-0.16547 -2.140859,-1.71214 -2.662247,-2.79794 -1.374306,-2.86205 -1.304261,-6.58827 0.178624,-9.50221 l 0.639875,-1.25739 -1.171852,-1.07999 c -0.644518,-0.59399 -1.444045,-1.52415 -1.776727,-2.06704 -2.73526,-4.46353 -1.544611,-11.239652 2.6896,-15.306823 l 1.063994,-1.02202 -0.584998,-0.856438 c -1.003797,-1.469558 -1.377999,-2.669947 -1.386678,-4.448274 -0.01379,-2.826221 1.207352,-5.451889 3.544706,-7.621713 1.119572,-1.039327 2.954316,-2.330266 3.71894,-2.616672 0.256227,-0.09598 0.435176,-0.233071 0.397667,-0.304652 -0.457505,-0.873083 -0.694844,-1.615287 -0.783317,-2.449576 -0.440693,-4.155699 2.703561,-9.05196 7.120674,-11.088382 2.010981,-0.927123 4.368,-2.02304 4.749281,-1.527404 0.09253,0.120292 0.05388,1.144491 0.115228,1.673865 0.0999,0.862161 0.513929,1.113159 0.515942,0.529065 0.0028,-0.813676 0.640121,-2.884694 1.234179,-4.010567 1.121242,-2.125008 2.87619,-3.431456 5.175312,-3.852694 1.062686,-0.194701 1.117542,-0.230739 1.438147,-0.944791 1.098198,-2.445916 4.657764,-4.314681 7.626162,-4.003718 2.337706,0.244891 4.570395,1.21473 6.307029,2.739658 0.556146,0.488349 1.027492,0.858708 1.047436,0.823021 0.01994,-0.03568 0.236058,-0.458102 0.480258,-0.9387 0.611116,-1.202715 2.572843,-3.191519 3.932304,-3.98658 4.282929,-2.504807 10.21365,-2.029535 14.804388,1.186385 0.58607,0.410561 1.32728,1.03117 1.6471,1.379133 0.60458,0.657767 0.92809,0.797603 0.92809,0.401167 0,-0.127322 0.36541,-0.794188 0.81204,-1.481926 1.31637,-2.027036 3.69471,-3.564978 6.44541,-4.167894 3.41912,-0.749422 8.14601,0.61916 10.9991,3.184576 0.6863,0.617101 1.29418,1.122002 1.35084,1.122002 0.0567,0 0.46853,-0.274857 0.91524,-0.610793 1.13977,-0.85713 2.48229,-1.208233 4.1548,-1.08659 2.76295,0.20095 5.25917,1.420413 7.5963,3.710952 l 1.46029,1.431187 0.40076,-0.420286 c 0.22042,-0.231156 0.92192,-0.671595 1.55889,-0.978752 1.07289,-0.517366 1.28885,-0.557874 2.93412,-0.550386 1.44674,0.0066 2.01226,0.0917 3.05046,0.45914 2.64607,0.936489 5.0887,3.02407 6.61571,5.654112 0.91851,1.581951 1.9084,3.956965 2.07368,4.975224 0.0637,0.392664 0.17922,0.713935 0.25664,0.713935 0.21107,0 0.40632,-2.179253 0.29256,-3.265215 -0.0915,-0.87219 -0.0661,-0.964235 0.30247,-1.102296 0.46107,-0.172706 2.0778,0.126693 3.30359,0.611785 2.86139,1.132363 5.1996,3.923397 6.1387,6.148357 0.77433,1.943159 0.51423,4.138482 0.52147,6.19496 l 0.44399,0.09591 c 3.67941,0.794774 6.7937,3.279852 8.52349,6.801373 1.066,2.170163 1.45726,3.696014 1.52551,5.948989 0.12037,3.974874 -1.73436,7.662396 -4.88893,9.719999 l -0.41641,0.271602 0.4717,0.702222 c 1.55936,2.321499 1.58537,5.936173 0.0607,8.437783 -1.2047,1.97661 -3.5908,3.68528 -5.55077,3.97485 -0.72426,0.107 -0.78816,0.15435 -0.66299,0.49145 0.0762,0.20515 0.13787,1.12102 0.13706,2.03524 -0.002,1.42644 -0.0676,1.8017 -0.46801,2.64555 -0.57733,1.21686 -1.51899,2.26065 -2.83186,3.139 -1.49397,0.99953 -1.53606,1.43211 -0.16185,1.6639 1.18248,0.19944 3.2245,0.7822 4.31844,1.23239 1.92416,0.79188 2.96107,1.83284 2.96246,2.97401 6.6e-4,0.57673 -0.66451,1.70337 -1.30348,2.20765 -0.50317,0.39711 -0.53176,0.3947 -0.88028,0.63445 -0.17421,0.11985 -0.35059,0.91795 -0.47043,1.68782 -0.39034,2.50732 -1.26835,6.56469 -1.71697,7.93425 -0.24128,0.73654 -0.84544,2.16591 -1.34261,3.17635 -0.78314,1.59174 -1.10703,2.03592 -2.42409,3.32445 l -1.5202,1.48724 -0.0376,4.28678 c -0.0486,5.54736 -0.42777,8.92064 -1.59273,14.17259 -1.75476,7.91097 -4.9178,15.21766 -9.54379,22.04626 -3.79444,5.60114 -6.63708,8.54234 -10.07712,10.42658 -2.55208,1.39786 -2.70551,1.72613 -1.10226,2.35839 0.56167,0.2215 2.0202,0.8305 3.24119,1.35334 1.221,0.52284 2.5814,1.09162 3.02314,1.26396 0.44174,0.17235 1.24094,0.5096 1.776,0.74947 0.96825,0.43407 2.73908,1.16996 6.12319,2.54448 1.8957,0.76998 11.06055,4.22487 11.20739,4.22487 0.1345,0 5.9221,2.13933 8.41732,3.11136 9.86673,3.84371 14.50905,6.34404 19.04865,10.2596 3.52251,3.03829 6.95108,7.94475 8.82534,12.74246 7.65705,19.6003 7.20495,41.97719 10.56233,62.825 l -9.8429,0.12148 H 106.5222 15.59151 Z M 115.84613,285.55852 c 1.82998,-0.81627 3.21415,-2.5349 3.84405,-4.77294 0.41322,-1.46811 0.43679,-4.04446 0.0504,-5.51333 -1.08022,-4.10701 -4.30185,-6.54646 -7.45345,-5.64382 -1.87789,0.53783 -3.28928,1.77799 -4.19599,3.68692 -1.71522,3.6111 -1.22014,8.10132 1.18194,10.71959 1.79687,1.95857 4.29807,2.53832 6.57302,1.52358 z m -3.50794,-1.20359 c -1.57901,-0.58042 -2.77385,-1.94312 -3.35416,-3.82542 -0.4963,-1.60977 -0.40934,-4.44766 0.18213,-5.94418 1.38575,-3.50615 5.24266,-4.5836 7.51588,-2.0996 1.32527,1.44815 1.91148,3.12729 1.91478,5.48462 0.004,2.66505 -1.02139,4.84658 -2.83213,6.02713 -0.85503,0.55746 -2.43422,0.72219 -3.4265,0.35745 z m 69.488,-1.26526 c 3.31179,-5.03667 7.63746,-15.27536 8.87652,-21.01039 0.8529,-3.94769 0.11834,-2.94259 -2.00467,2.74298 -2.93179,7.85154 -4.50724,11.54512 -7.38847,17.32207 -0.88794,1.78032 -1.61493,3.31074 -1.61551,3.4009 -0.003,0.36677 1.14615,-0.95607 2.13213,-2.45556 z M 47.011375,282.03268 c 1.167291,-6.81946 1.504535,-11.95993 1.384937,-21.11008 -0.09317,-7.1279 -0.280468,-9.54613 -0.937858,-12.10856 -0.24956,-0.97274 -0.512123,-1.48354 -0.669343,-1.30218 -0.03615,0.0418 0.048,2.59539 0.186971,5.67488 0.406268,9.00187 0.124647,21.15614 -0.660231,28.49441 -0.09414,0.88027 -0.166045,2.03354 -0.15977,2.56282 l 0.0114,0.96233 0.244311,-0.54907 c 0.13437,-0.302 0.404178,-1.48305 0.599574,-2.62455 z m -0.577641,-5.8811 c -0.04927,-0.12028 -0.08958,-0.0219 -0.08958,0.21872 0,0.24059 0.0403,0.33901 0.08958,0.21872 0.04927,-0.1203 0.04927,-0.31714 0,-0.43744 z m 133.782536,-7.85976 c 0.49061,-3.4327 1.04979,-7.21207 1.24262,-8.39857 0.30243,-1.86088 1.55368,-11.46889 1.8646,-14.31771 0.75507,-6.91859 1.40912,-18.72182 1.03742,-18.72182 -0.10096,0 -0.23605,0.25588 -0.30021,0.56865 -0.64986,3.16822 -1.24014,7.77343 -2.41652,18.85305 -0.49555,4.66733 -1.09545,10.13952 -1.33313,12.16043 -0.8069,6.86086 -1.58949,16.43513 -1.37178,16.7822 0.20067,0.31988 0.38166,-0.66176 1.277,-6.92623 z m -136.638804,1.93462 c -0.664413,-3.26772 -1.468118,-6.66915 -2.081667,-8.80996 -1.503285,-5.2453 -4.19423,-12.08178 -6.923966,-17.59065 -3.487978,-7.03907 -6.87879,-12.15088 -10.538472,-15.88717 -3.307473,-3.37672 -3.019246,-2.76295 2.037646,4.33913 6.684503,9.38797 11.740178,20.46232 16.175215,35.43148 1.127688,3.80618 1.522975,4.92965 1.680034,4.77491 0.05052,-0.0497 -0.10643,-1.06576 -0.34879,-2.25774 z m 4.991157,1.73681 c -0.0567,-0.13959 -0.09878,-0.098 -0.1073,0.1057 -0.0078,0.18445 0.03426,0.28779 0.09327,0.22966 0.05901,-0.0582 0.06532,-0.20905 0.01403,-0.33536 z m 64.529667,-3.82563 c 0.26986,-0.4968 0.20275,-2.06266 -0.11685,-2.72623 -0.16845,-0.34972 -0.60055,-0.78065 -1.03338,-1.03055 -0.80788,-0.46643 -1.8739,-0.74758 -1.8739,-0.49422 0,0.0868 0.22454,0.58881 0.49899,1.11545 0.27443,0.52662 0.68686,1.42993 0.91649,2.00732 0.64728,1.62757 1.147,1.97806 1.60865,1.12823 z m 2.17851,-1.0624 c 0.58033,-1.13458 0.8201,-3.07087 0.4848,-3.91517 l -0.20845,-0.5249 -0.50855,0.55932 c -0.2797,0.30762 -0.59295,0.85878 -0.6961,1.22479 -0.34689,1.23066 -0.18364,3.8045 0.23362,3.68365 0.10913,-0.0316 0.42173,-0.49407 0.69468,-1.02769 z m -6.46144,-3.75492 c -0.39973,-1.06672 -1.75542,-2.61039 -2.17374,-2.47514 -0.32942,0.10651 -0.3464,1.29078 -0.0319,2.2237 0.3811,1.13044 1.14761,2.1458 1.88739,2.5001 l 0.60022,0.28749 0.053,-0.75053 c 0.0322,-0.45718 -0.0987,-1.15509 -0.33495,-1.78562 z m 9.37823,0.29448 c 0.59419,-0.87074 0.81047,-1.86529 0.71788,-3.30108 -0.0904,-1.40081 -0.13029,-1.49835 -0.5489,-1.34009 -0.73551,0.27806 -1.68468,3.51568 -1.41713,4.83372 0.13939,0.68662 0.70808,0.59889 1.24815,-0.19255 z m -13.13673,-2.26193 c -0.1088,-1.18211 -0.76221,-2.65116 -1.60788,-3.61499 -0.80937,-0.92242 -1.0842,-0.72989 -0.96815,0.67818 0.10485,1.27214 0.64039,2.47104 1.4878,3.33068 0.93623,0.94974 1.20301,0.85317 1.08823,-0.39387 z m 16.14944,-1.90552 c 0.4262,-0.71649 0.50047,-1.05395 0.56152,-2.55115 0.0791,-1.93885 -0.0739,-2.32732 -0.69723,-1.77188 -0.66103,0.58898 -1.07721,1.6325 -1.17283,2.94073 -0.0977,1.33452 0.12165,2.20801 0.55406,2.20801 0.14482,0 0.48433,-0.37158 0.75448,-0.82571 z m -19.93995,-1.35835 c 0.26295,-1.03217 -0.43932,-3.08358 -1.468558,-4.28985 -0.287391,-0.33682 -0.590264,-0.54671 -0.673053,-0.46644 -0.08279,0.0803 -0.145483,0.71018 -0.139323,1.39977 0.01247,1.39512 0.447101,2.59608 1.212414,3.35007 0.56666,0.55827 0.92738,0.56044 1.06852,0.007 z m 22.74696,-3.1088 c 0.46168,-1.1346 0.53224,-2.37519 0.19929,-3.50361 -0.15972,-0.54124 -0.35783,-1.02513 -0.44026,-1.07531 -0.0823,-0.0501 -0.37957,0.31979 -0.6603,0.8222 -0.4491,0.80373 -0.50851,1.08268 -0.49454,2.32216 0.009,0.77477 0.10993,1.58183 0.22489,1.79343 0.34172,0.62909 0.82977,0.47952 1.17092,-0.35887 z M 97.603787,253.7554 c -0.09865,-1.4697 -0.633509,-2.83633 -1.389206,-3.54961 l -0.51387,-0.48505 -0.200253,0.50821 c -0.571286,1.44981 0.712984,4.79498 1.840882,4.79498 0.320927,0 0.341062,-0.0973 0.262447,-1.26853 z m 28.716843,-2.84326 c 0.45733,-0.91098 0.47077,-3.18142 0.0247,-4.16767 -0.35077,-0.77551 -0.59067,-0.76005 -1.08254,0.0697 -0.66719,1.12544 -0.34429,4.98883 0.40556,4.85253 0.16553,-0.0301 0.45907,-0.36965 0.65231,-0.75457 z M 94.1657,250.58885 c 0.128443,-0.84383 -0.110013,-2.13241 -0.550592,-2.97528 -0.462697,-0.88518 -1.144019,-1.68809 -1.432457,-1.68809 -0.396378,0 -0.23035,2.83753 0.214923,3.67319 0.443222,0.83181 1.204616,1.75087 1.450506,1.75087 0.111008,0 0.253937,-0.3423 0.31762,-0.76069 z m 34.19647,-3.88893 c 0.35732,-0.699 0.44842,-3.12816 0.15046,-4.01139 -0.30904,-0.91602 -0.66794,-0.88942 -1.18035,0.0875 -0.34356,0.655 -0.39711,0.96384 -0.31854,1.83719 0.11439,1.27183 0.60599,2.75264 0.88424,2.66354 0.11136,-0.0357 0.32025,-0.29522 0.46419,-0.57682 z m -37.720112,-0.17927 c 0.291943,-1.53315 -0.371739,-3.63467 -1.46842,-4.64971 -0.364045,-0.33694 -0.455485,-0.35846 -0.595599,-0.14018 -0.278382,0.43371 -0.190032,1.9974 0.179443,3.17591 0.320609,1.02263 1.200143,2.2436 1.616209,2.2436 0.08167,0 0.202428,-0.28333 0.268367,-0.62962 z m -3.374381,-4.19928 c 0.06594,-0.34629 0.07531,-1.05516 0.02082,-1.57525 -0.165875,-1.58339 -1.551722,-4.11533 -1.930633,-3.52729 -0.241736,0.37516 -0.162041,2.64615 0.126446,3.60321 0.254731,0.84507 1.166738,2.12894 1.512317,2.12894 0.08314,0 0.205105,-0.28332 0.271045,-0.62961 z m 43.063543,-0.53986 c 0.34777,-1.03815 0.26174,-2.86047 -0.17485,-3.70359 -0.67033,-1.29448 -1.25671,-0.74283 -1.25671,1.18227 0,1.4634 0.57732,3.16589 1.07356,3.16589 0.0782,0 0.23925,-0.29006 0.358,-0.64457 z m -46.223135,-4.63587 c 0.043,-0.9598 -0.04365,-1.4098 -0.491921,-2.55501 -0.598638,-1.52936 -1.153246,-2.21973 -1.430713,-1.78096 -0.531612,0.84063 -0.343259,2.93518 0.386058,4.29309 0.921883,1.71646 1.460937,1.7315 1.536576,0.0428 z m 47.810745,0.45582 c 0.43301,-0.83218 0.3472,-3.12237 -0.15519,-4.14262 -0.22511,-0.45711 -0.48003,-0.83111 -0.56647,-0.83111 -0.25618,0 -0.69701,0.98583 -0.8127,1.81738 -0.16662,1.19761 0.59107,3.88541 1.0535,3.73712 0.11797,-0.0378 0.33436,-0.29917 0.48086,-0.58077 z m -18.40822,-1.40611 c 5.18995,-0.54858 11.12609,-2.53929 15.21145,-5.10122 1.05952,-0.66444 1.23632,-0.8493 1.24047,-1.29702 0.002,-0.232 -0.52794,-0.0429 -2.52806,0.9017 -3.96626,1.87317 -8.03789,3.15906 -12.2635,3.87302 -3.13113,0.52903 -9.37225,0.65081 -13.09035,0.25543 -5.474473,-0.58216 -11.047992,-1.91935 -16.407902,-3.93656 -1.552738,-0.58437 -2.93135,-1.06249 -3.063584,-1.06249 -0.343156,0 -0.297292,0.59494 0.0712,0.92348 0.479277,0.42731 4.281975,1.98439 7.147542,2.92666 4.813562,1.58282 10.140916,2.54242 15.451114,2.78314 3.20101,0.1451 4.84318,0.092 8.23162,-0.26614 z m -32.722571,-2.27638 c 0.152555,-0.18109 0.236261,-0.73408 0.231751,-1.53098 -0.008,-1.40225 -0.49972,-2.76219 -1.249973,-3.45658 -0.598414,-0.55386 -0.769273,-0.25062 -0.772768,1.37149 -0.0028,1.26625 0.351317,2.5012 0.994178,3.46781 0.336899,0.50656 0.473562,0.53199 0.796812,0.14826 z m 52.884581,-1.60139 c 0.20418,-1.27254 -0.0412,-2.73944 -0.5963,-3.56596 -0.257,-0.38262 -0.56262,-0.66504 -0.67918,-0.62761 -0.32034,0.10286 -0.54201,1.52454 -0.40552,2.6008 0.13609,1.07311 1.09219,2.92482 1.36925,2.65186 0.0927,-0.0913 0.23293,-0.56787 0.31175,-1.05909 z m -55.721923,-2.97055 c 0.41,-1.03411 -0.0961,-3.59349 -0.951475,-4.81167 -0.663798,-0.94534 -1.017224,-0.501 -1.021651,1.28446 -0.0029,1.19006 0.311402,2.27484 0.946067,3.26476 0.556824,0.86851 0.765622,0.92187 1.027059,0.26245 z m 56.740643,-0.84616 c 0.14166,-0.55612 -0.0162,-2.37876 -0.28297,-3.26534 -0.10849,-0.36072 -0.39191,-0.87251 -0.62982,-1.13731 -0.3658,-0.4072 -0.46,-0.44097 -0.6106,-0.21901 -0.098,0.14435 -0.17852,0.81363 -0.17907,1.48726 -6.7e-4,0.94587 0.10179,1.44229 0.45027,2.17986 0.71436,1.51195 1.0458,1.76462 1.25219,0.95454 z m -61.564072,-1.95336 c -0.01958,-0.40819 -0.632746,-1.03539 -2.265011,-2.31682 -5.185822,-4.07117 -10.509205,-9.95771 -13.653359,-15.09773 -1.399339,-2.28762 -3.222936,-6.00914 -3.877175,-7.9124 -0.264642,-0.76986 -0.523456,-1.43913 -0.575143,-1.48725 -0.295414,-0.275 0.252384,2.48616 0.836745,4.21761 1.653509,4.8993 4.603355,9.63893 8.935018,14.3562 2.749253,2.994 6.417847,6.05088 9.291035,7.74184 1.077184,0.63394 1.3188,0.72604 1.30789,0.49855 z m 1.791681,-2.5277 c 0.347371,-1.27094 -0.386566,-3.73415 -1.34649,-4.51902 -0.664145,-0.54303 -0.836527,2.03621 -0.240909,3.60458 0.366005,0.96376 0.871166,1.64869 1.21596,1.64869 0.09391,0 0.261061,-0.33041 0.371439,-0.73425 z m 40.394381,0.0394 c 2.4193,-0.51084 5.06482,-1.40122 6.95199,-2.33979 7.0542,-3.50833 10.8923,-9.9393 9.57782,-16.04824 -0.25233,-1.17272 -0.75857,-2.54964 -0.88987,-2.42029 -0.04,0.0394 -0.40559,1.52136 -0.8122,3.29299 -1.04896,4.57037 -1.83188,6.12172 -2.16293,4.28575 -0.31744,-1.76049 -0.0285,-8.02612 0.47981,-10.40709 0.52456,-2.45679 0.40987,-2.62408 -1.45161,-2.11748 -3.67975,1.00144 -7.14758,0.97918 -11.87061,-0.0762 -13.56605,-3.03141 -31.760803,-15.32999 -38.545556,-26.05456 -1.612009,-2.54809 -2.208439,-5.33532 -1.141681,-5.33532 0.218849,0 0.703225,0.60189 1.498868,1.86252 2.770731,4.39 6.547269,8.32201 11.015717,11.4692 6.23877,4.39406 16.113482,8.7981 23.265482,10.37621 3.66412,0.80849 5.9354,1.13623 9.05754,1.30699 3.07763,0.16831 7.61563,0.0102 7.90446,-0.27616 0.19542,-0.19344 0.61987,-2.85683 0.98677,-6.19192 0.15351,-1.39538 0.33793,-2.59642 0.40986,-2.66895 0.0719,-0.0726 0.2863,-0.0199 0.4764,0.11702 0.77884,0.56084 0.419,5.51774 -0.55239,7.60898 -0.24149,0.51988 -0.41103,0.97286 -0.37677,1.0066 0.0342,0.0337 0.57488,-0.0407 1.20135,-0.16526 1.49856,-0.29818 1.55826,-0.43389 1.68169,-3.82335 0.11065,-3.03859 0.2006,-3.82474 0.43764,-3.82474 0.0907,0 0.30557,0.25591 0.47735,0.56865 0.42361,0.77123 0.42188,4.40327 -0.003,5.51157 -0.31743,0.82873 -0.27689,0.85666 0.81108,0.559 0.36724,-0.10049 0.78269,-0.35594 0.92325,-0.56768 0.41174,-0.62027 0.51909,-2.56475 0.27291,-4.94348 -0.25746,-2.48774 -0.11856,-3.01313 0.52412,-1.98253 0.63343,1.01577 0.80883,1.90831 0.80883,4.11604 v 2.12426 l 0.444,-0.31482 c 0.24419,-0.17316 0.68375,-0.56422 0.97679,-0.86901 l 0.53279,-0.55419 -0.0452,-3.0487 c -0.0249,-1.67678 0.0226,-3.0487 0.10568,-3.0487 0.56206,0 1.19209,1.52011 1.37088,3.30766 0.11521,1.15189 0.14521,1.2186 0.47091,1.04688 0.74548,-0.39307 0.90194,-1.25119 0.76617,-4.20256 -0.0718,-1.56042 -0.058,-2.77733 0.0322,-2.8322 0.43644,-0.26575 0.99271,0.77834 1.19488,2.2428 0.24028,1.74038 0.41668,1.87792 0.95377,0.74363 0.22669,-0.47874 0.3899,-1.30457 0.45819,-2.31836 0.11273,-1.67306 0.38047,-2.88701 0.63675,-2.88701 0.22252,0 0.58217,1.16505 0.60317,1.95384 0.0103,0.36889 0.0682,0.67071 0.1298,0.67071 0.28849,0 1.05743,-2.19648 1.34756,-3.84935 0.23777,-1.35456 0.39099,-1.83718 0.58327,-1.83718 0.16701,0 0.31725,0.28126 0.41778,0.78216 0.1427,0.71093 0.17874,0.75286 0.39577,0.46045 0.25438,-0.34273 0.78884,-2.44199 0.79289,-3.11435 0.007,-1.15371 0.53396,-1.59287 0.85094,-0.70908 l 0.17257,0.48118 0.30813,-0.69988 c 0.16945,-0.38495 0.47807,-1.46729 0.6858,-2.4052 0.33938,-1.5322 0.4177,-1.70538 0.77161,-1.70597 0.33984,-5.5e-4 0.4575,-0.20609 0.85747,-1.49802 1.22813,-3.96679 2.21624,-9.23966 2.57201,-13.72504 0.21776,-2.7454 0.18457,-8.79502 -0.0495,-9.02565 -0.07,-0.069 -0.66809,-0.0296 -1.329,0.0876 -1.85475,0.32895 -6.99445,0.44097 -9.30376,0.20275 -2.95219,-0.30455 -5.53756,-1.26419 -6.64047,-2.46484 -0.17578,-0.19138 -0.38714,-0.34795 -0.46968,-0.34795 -0.35617,0 -0.076,0.81321 1.02641,2.97863 0.97854,1.92216 1.19183,2.49902 1.26753,3.42817 0.0816,1.00302 0.0325,1.23432 -0.48215,2.2642 -0.4296,0.8597 -0.82361,1.34068 -1.57289,1.92008 -1.41452,1.09377 -3.38538,2.03918 -4.46383,2.14127 -0.86814,0.0821 -0.89793,0.07 -0.89793,-0.36436 0,-0.33436 0.28191,-0.68712 1.10145,-1.37829 3.61623,-3.04979 4.305,-4.01464 3.88345,-5.44015 -0.11999,-0.40583 -0.95817,-2.11576 -1.86261,-3.79985 -1.90769,-3.55221 -2.74909,-5.43865 -3.36767,-7.55039 -0.52065,-1.77749 -0.77893,-3.64771 -0.50373,-3.64771 0.22624,0 0.91557,1.07167 1.03636,1.30823 0.1362,0.2667 1.31041,2.71609 1.46106,2.71609 0.0751,0 0.0332,-0.68894 -0.0929,-1.53099 -0.1262,-0.84205 -0.28249,-2.92634 -0.34734,-4.63176 l -0.11789,-3.10077 -0.5507,-0.17074 c -2.5781,-0.79928 -6.86052,-0.64773 -7.73977,0.2739 -0.19524,0.20466 -0.42432,1.00234 -0.6208,2.16154 -1.24142,7.32449 -3.44426,12.07411 -6.49413,14.00224 -1.3029,0.82369 -2.90755,1.3477 -5.47163,1.78684 -1.96287,0.33614 -2.87472,0.38382 -7.21941,0.37756 -5.282285,-0.008 -7.359537,-0.23221 -10.214663,-1.10437 -4.493768,-1.37269 -6.635816,-4.95861 -7.717067,-12.9188 -0.47869,-3.52413 -0.81805,-4.53022 -1.752764,-5.19635 -0.433409,-0.30887 -0.731171,-0.35328 -2.131189,-0.31779 -3.580485,0.0907 -9.160186,0.80213 -10.977066,1.3996 l -0.939231,0.30886 0.04666,0.87485 c 0.06606,1.23815 -0.276873,5.36932 -0.594801,7.16547 -0.61538,3.47662 -2.576961,5.43804 -3.969607,3.96926 -0.728421,-0.76822 -1.71411,-2.91452 -2.434635,-5.3013 -0.358476,-1.18749 -0.959674,-2.81573 -1.335996,-3.61837 -1.639924,-3.49766 -5.860099,-6.08409 -8.909506,-5.46041 -1.89663,0.38792 -4.23429,2.3179 -5.171463,4.26961 -2.238492,4.66174 -1.529851,11.43195 1.768362,16.89455 2.164253,3.58452 5.795944,7.41154 9.045203,9.53172 3.324638,2.16938 5.476384,2.39193 7.812982,0.8081 1.379785,-0.93526 1.497636,-0.78534 2.28974,2.913 1.012893,4.72923 1.65405,11.59788 1.44152,15.4429 -0.218313,3.94966 -0.304457,4.96655 -0.63503,7.49614 -0.640442,4.90079 -1.718447,8.18138 -3.598211,10.95005 -1.009098,1.48629 -1.067032,1.62985 -1.145801,2.83905 -0.248648,3.81711 1.62719,9.19033 4.363526,12.49909 7.677829,9.28392 21.09087,16.11169 34.847837,17.73894 0.34188,0.0405 2.41978,0.0486 4.61756,0.0183 3.26148,-0.0451 4.32242,-0.12415 5.77198,-0.43023 z m 4.585,-34.16791 c 0.22724,-2.30999 2.14703,-8.02297 2.60278,-7.74546 0.51781,0.31529 -0.12962,4.52162 -1.05887,6.87933 -0.54126,1.37329 -0.95629,1.95969 -1.38695,1.95969 -0.21759,0 -0.24544,-0.1941 -0.15696,-1.09356 z m 2.55324,-7.25793 c -0.045,-0.17023 -0.0848,-0.0734 -0.0884,0.21538 -0.003,0.2887 0.0332,0.428 0.0818,0.30953 0.0486,-0.11846 0.0516,-0.35466 0.007,-0.52491 z m 1.83052,7.92276 c 0,-0.5251 1.54846,-7.99266 1.78379,-8.60248 0.43367,-1.12374 0.96856,0.64881 0.80397,2.6642 -0.24105,2.9516 -1.44003,6.36701 -2.23513,6.36701 -0.25584,0 -0.35263,-0.11767 -0.35263,-0.42873 z m -8.33179,-0.1654 c -0.56081,-0.66575 0.97968,-5.78728 2.22908,-7.41075 0.62171,-0.80786 1.02928,-0.76679 0.86795,0.0875 -0.12251,0.64869 -1.61779,5.38547 -2.15411,6.82385 -0.28581,0.76652 -0.5846,0.92478 -0.94292,0.49942 z m -4.03392,-0.71301 c -0.1599,-0.41051 0.071,-2.14297 0.47866,-3.59253 0.54409,-1.93439 1.69687,-4.0238 2.21999,-4.0238 0.40438,0 0.30742,0.58359 -0.53479,3.21812 -0.434,1.35763 -0.93351,2.94084 -1.11,3.51822 -0.3255,1.06492 -0.82076,1.47845 -1.05386,0.87999 z m -3.85501,-0.38423 c -0.20709,-0.20401 -0.12158,-2.20193 0.14785,-3.45493 0.30886,-1.4363 1.16881,-3.32438 1.81999,-3.99589 0.95856,-0.98846 0.9857,-0.5154 0.11846,2.06503 -0.3503,1.04228 -0.79428,2.60549 -0.98664,3.47378 -0.3993,1.80247 -0.69282,2.31282 -1.09966,1.91201 z m -3.2325,-1.81778 c -0.24008,-0.38271 -0.0745,-3.29035 0.26103,-4.58268 0.36184,-1.39389 1.1473,-3.10625 1.4248,-3.10625 0.3708,0 0.35958,0.44637 -0.0627,2.49084 -0.24373,1.18022 -0.49788,2.73639 -0.56474,3.45816 -0.0668,0.72173 -0.19392,1.45005 -0.28238,1.61846 -0.17887,0.34052 -0.59754,0.40605 -0.77606,0.12147 z m -3.45655,-1.65112 c -0.64713,-1.67689 0.29715,-6.87364 1.43299,-7.88635 0.31609,-0.28182 0.34179,-0.28152 0.45342,0.005 0.0651,0.16711 -0.0557,1.10783 -0.26863,2.09051 -0.21283,0.98269 -0.48624,2.76535 -0.60755,3.96149 -0.18394,1.81338 -0.2714,2.18441 -0.52636,2.23279 -0.19728,0.0375 -0.36895,-0.10574 -0.48387,-0.40354 z m -3.392372,-1.69572 c -0.949561,-1.74801 0.394617,-8.76473 1.475116,-7.7002 0.147462,0.14527 0.122315,0.73349 -0.09654,2.25844 -0.162768,1.13411 -0.301767,2.53443 -0.308888,3.11182 -0.02075,1.68371 -0.212199,2.61223 -0.551829,2.67656 -0.1703,0.0322 -0.393021,-0.11683 -0.517856,-0.34662 z m -3.377067,-1.40472 c -0.549947,-1.01237 -0.303572,-5.01812 0.409016,-6.65006 0.427485,-0.97901 0.853834,-1.11254 0.855373,-0.26789 0.0029,1.60744 -0.431057,6.89673 -0.58143,7.0863 -0.251929,0.31759 -0.444819,0.27003 -0.682959,-0.16835 z m -3.371373,-2.09409 c -0.143057,-0.26336 -0.179238,-1.14398 -0.116816,-2.84327 0.07214,-1.96402 0.175628,-2.7094 0.511797,-3.68655 0.270943,-0.78755 0.516467,-1.2248 0.687764,-1.2248 0.394961,0 0.419199,0.85353 0.101726,3.58216 -0.153628,1.32039 -0.279322,2.7907 -0.279322,3.26737 0,1.1836 -0.488502,1.67207 -0.905146,0.90509 z m -3.162257,-2.26915 c -0.28029,-0.79215 -0.238208,-5.18919 0.06887,-7.1963 0.282446,-1.8461 0.489697,-2.40096 0.896795,-2.40096 0.323441,0 0.324401,0.10325 0.05328,5.73027 -0.191806,3.98082 -0.243106,4.418 -0.518422,4.418 -0.183046,0 -0.383724,-0.22092 -0.500526,-0.55101 z m -3.05921,-2.1873 c -0.379733,-0.4498 -0.427454,-4.74425 -0.07694,-6.92451 0.385472,-2.39775 1.073066,-3.8799 1.404818,-3.02817 0.05501,0.14125 -0.01603,1.49945 -0.157874,3.01825 -0.141845,1.51877 -0.259105,3.47005 -0.260579,4.33615 -0.0046,2.64335 -0.258564,3.36924 -0.909419,2.59828 z m 39.272049,-1.11738 c -3.57842,-0.30593 -6.8765,-1.88574 -6.0313,-2.88906 0.27893,-0.33112 0.71762,-0.31734 3.2785,0.10303 4.13042,0.678 8.6606,0.63417 11.95826,-0.11571 1.2563,-0.28567 1.80567,-0.20056 1.80567,0.27977 0,0.79636 -2.25834,1.89583 -4.81619,2.34475 -2.01735,0.35406 -4.16954,0.45037 -6.19494,0.27722 z m -42.376982,-2.54539 c -0.198385,-0.77872 0.05944,-5.86066 0.380958,-7.50906 0.409722,-2.1006 0.910977,-3.04864 1.208297,-2.2853 0.05393,0.13847 -0.05675,2.00846 -0.245952,4.15554 -0.189206,2.14708 -0.344664,4.27134 -0.345458,4.72057 -0.0019,1.04091 -0.134035,1.37035 -0.549861,1.37035 -0.209764,0 -0.375395,-0.16716 -0.447984,-0.4521 z m -2.541971,-2.90909 c -0.429569,-1.21402 -0.0753,-6.73439 0.553296,-8.62189 0.134815,-0.40481 0.362709,-0.72223 0.543088,-0.75646 0.252038,-0.0478 0.311095,0.0675 0.31237,0.61 0.0022,0.88024 -0.530547,8.25995 -0.630942,8.74205 -0.12896,0.6193 -0.562798,0.63396 -0.777812,0.0264 z m 30.281663,-2.29317 c -0.41232,-0.29705 -0.30942,-0.78469 0.25177,-1.19302 0.9142,-0.66521 8.60757,-2.04075 12.25433,-2.191 1.79171,-0.0738 2.80149,-0.0277 3.99597,0.18246 1.95833,0.34457 3.39497,0.3495 4.79518,0.0164 2.18923,-0.52079 4.84228,-0.25568 6.95551,0.69507 0.97209,0.43735 1.39042,0.94808 1.21711,1.486 -0.17219,0.53449 -0.48786,0.5341 -2.59842,-0.003 -2.30376,-0.58645 -3.22214,-0.62359 -5.72519,-0.23154 -1.66866,0.26137 -1.97178,0.25944 -4.41191,-0.0279 -3.23117,-0.38059 -5.26013,-0.24317 -11.68741,0.7915 -5.01848,0.80788 -4.6353,0.77179 -5.04694,0.47525 z m -32.840859,-1.63615 c -0.253959,-0.2502 -0.107831,-3.77399 0.22709,-5.47616 0.391327,-1.98883 0.673966,-2.68789 1.121055,-2.77271 0.430662,-0.0816 0.408792,0.60381 -0.144039,4.51514 -0.504024,3.56599 -0.713875,4.2167 -1.204106,3.73373 z m -2.627439,-1.22204 c -0.367505,-0.43553 -0.409273,-3.34648 -0.08537,-5.95051 0.344661,-2.77101 0.62905,-3.79754 1.075529,-3.88226 0.312498,-0.0593 0.324332,0.0474 0.213382,1.92371 -0.0646,1.09257 -0.167735,3.24627 -0.229177,4.786 -0.130926,3.28106 -0.322608,3.89546 -0.974353,3.12306 z m 70.103978,-0.0315 c -0.11777,-0.18773 -1.0894,-3.98894 -1.26589,-4.95239 -0.29804,-1.62703 0.85821,-0.47942 1.52233,1.51096 0.51073,1.53067 0.58748,3.45944 0.1412,3.54793 -0.16182,0.0321 -0.34077,-0.0158 -0.39764,-0.1065 z m -41.00875,-0.26484 c -0.18685,-0.47971 0.6182,-1.75 1.96438,-3.09959 1.37537,-1.37887 1.81887,-1.64894 1.81887,-1.10757 0,0.5265 -1.10402,2.32504 -2.07824,3.38566 -0.94309,1.02673 -1.51729,1.30339 -1.70501,0.8215 z m 4.79963,-1.09626 c -0.28826,-0.28401 1.1475,-3.1523 2.07997,-4.15526 1.20504,-1.29612 1.56337,-0.52305 0.58882,1.27035 -0.88705,1.63242 -2.34281,3.20605 -2.66879,2.88491 z m 33.30669,-1.41616 c -0.45805,-1.06925 -1.21861,-4.20442 -1.05826,-4.36238 0.57151,-0.56305 2.25298,3.2559 2.05123,4.65877 -0.11048,0.76838 -0.59934,0.62246 -0.99297,-0.29639 z m -29.11025,0.38109 c -0.2871,-0.7371 1.77617,-5.07182 2.62786,-5.52088 0.36745,-0.19374 0.37656,-0.17409 0.28601,0.61735 -0.1466,1.28147 -2.19429,5.17056 -2.72242,5.17056 -0.0481,0 -0.13425,-0.12018 -0.19145,-0.26703 z m 4.06524,-1.43895 c 0.10686,-0.78188 1.54883,-3.88452 2.1907,-4.71359 0.87449,-1.12956 1.06447,-0.0925 0.33351,1.82076 -0.5244,1.37262 -1.10075,2.38789 -1.7415,3.06781 -0.64039,0.67952 -0.89181,0.62332 -0.78271,-0.17498 z m 22.50777,0.29813 c -0.43013,-0.79181 -1.41641,-3.71629 -1.41641,-4.19989 0,-0.57009 0.0454,-0.59823 0.54264,-0.33607 0.43618,0.22997 0.76116,0.85569 1.31921,2.5399 0.55588,1.67768 0.58403,2.35408 0.098,2.35408 -0.19192,0 -0.43646,-0.16111 -0.54343,-0.35802 z m -2.71085,-0.519 c -0.52662,-0.4081 -1.46247,-2.52795 -1.64052,-3.71595 -0.1139,-0.7601 -0.0936,-0.8311 0.23794,-0.8311 0.19934,0 0.52289,0.20093 0.71899,0.44653 0.36238,0.45385 1.44524,3.42212 1.44524,3.96157 0,0.46559 -0.27533,0.51583 -0.76165,0.13895 z m -16.03457,-0.65398 c 0.38591,-1.62625 2.09253,-4.76793 2.59003,-4.76793 0.31933,0 0.18314,1.18559 -0.27524,2.39583 -0.56482,1.49134 -1.54633,2.85328 -2.05625,2.85328 -0.3159,0 -0.35531,-0.0734 -0.25854,-0.48118 z m 12.93517,-0.0841 c -0.49955,-0.52554 -1.10148,-1.93678 -1.23479,-2.89498 -0.10241,-0.73631 -0.0884,-0.76754 0.31877,-0.71082 0.33007,0.046 0.57609,0.35455 1.09345,1.37157 0.92241,1.81328 0.80675,3.26964 -0.17743,2.23423 z m -9.63647,-0.12101 c 0,-0.40893 1.26677,-2.87955 1.83891,-3.58645 0.27789,-0.34335 0.50955,-0.47392 0.70788,-0.39893 0.39194,0.14817 0.37164,0.60682 -0.0794,1.79456 -0.59963,1.57891 -2.46736,3.23731 -2.46736,2.19082 z m 5.14597,-0.46242 c -0.22881,-0.59292 -0.21894,-1.28888 0.0286,-2.0184 0.28649,-0.84419 0.45937,-0.98068 0.80762,-0.63759 0.38257,0.37693 0.43886,2.38791 0.0787,2.81542 -0.35286,0.41893 -0.71629,0.35561 -0.91505,-0.15943 z m -56.605828,-0.71931 c -0.20559,-0.49455 -0.131571,-5.44618 0.09846,-6.58656 0.243858,-1.20895 0.588291,-1.97821 0.834469,-1.86377 0.196448,0.0913 0.161546,5.15222 -0.05062,7.3418 -0.101694,1.04943 -0.188942,1.32193 -0.438302,1.36896 -0.175025,0.033 -0.369418,-0.0809 -0.443999,-0.26043 z m -2.426883,-5.98244 c -0.460053,-0.73337 -0.657609,-5.29404 -0.287915,-6.64666 0.240898,-0.88138 0.699054,-0.93825 0.922655,-0.11451 0.225539,0.83086 0.375017,5.35492 0.202363,6.12462 -0.15131,0.67456 -0.599473,1.01535 -0.837103,0.63655 z m 51.323241,-0.38653 c -0.72843,-0.63009 -1.01574,-1.60951 -0.59403,-2.02496 0.23114,-0.22773 0.32312,-0.20773 0.77744,0.1691 0.28341,0.23507 0.69633,0.74498 0.91762,1.13314 0.36736,0.64447 0.37783,0.72985 0.1205,0.98338 -0.38767,0.38192 -0.50846,0.35616 -1.22153,-0.26066 z m 2.44226,-1.3191 c -0.48982,-1.25753 3.61914,-2.06063 4.82635,-0.94332 0.26652,0.24668 0.43824,0.57568 0.40825,0.78213 -0.0492,0.33903 -0.17569,0.35683 -2.60134,0.36623 -1.85962,0.007 -2.5722,-0.0483 -2.63326,-0.20504 z M 63.206505,144.8456 c -1.290242,-1.31879 -1.688035,-2.27284 -1.620473,-3.88644 0.145365,-3.47181 0.08511,-4.44901 -0.321966,-5.22111 -0.4461,-0.84614 -0.753696,-0.92105 -1.353925,-0.3297 -1.271176,1.25236 -1.700892,3.81048 -0.988574,5.885 0.214782,0.62552 0.655678,1.57036 0.979766,2.09964 1.16114,1.89632 0.781281,2.68177 -0.763697,1.57917 -1.560543,-1.11372 -2.700273,-3.5456 -2.696272,-5.75314 0.0036,-2.00563 0.653771,-3.74611 1.990593,-5.32907 l 0.71109,-0.84201 -0.302938,-0.78148 c -0.427219,-1.1021 -1.563653,-2.45031 -2.434277,-2.88789 -0.555882,-0.27939 -0.941278,-0.34935 -1.551853,-0.28166 -0.688341,0.0763 -0.927074,0.21488 -1.564327,0.90804 -1.18525,1.28923 -1.512884,2.53874 -1.537056,5.86191 -0.01705,2.34454 -0.05832,2.71696 -0.306308,2.76401 -0.53297,0.1011 -1.149754,-1.66403 -1.331772,-3.81142 -0.210311,-2.48118 0.445836,-4.94438 1.688531,-6.33878 1.233909,-1.38454 3.337225,-1.79877 5.06671,-0.99784 1.863969,0.8632 4.039575,3.40837 5.452361,6.37856 1.004714,2.11227 1.280595,3.46708 1.157077,5.68226 -0.108782,1.95095 -0.0379,2.28169 0.96713,4.51319 0.311228,0.69102 0.370345,0.99947 0.232751,1.21438 -0.336524,0.5256 -0.622925,0.44283 -1.472571,-0.42562 z m 75.783395,76.88464 c 1.58677,-2.64669 2.50484,-5.0137 3.12677,-8.06165 0.3712,-1.81919 0.37484,-6.0578 0.007,-7.96903 -0.27817,-1.44463 -0.89497,-3.12342 -1.08046,-2.94068 -0.0562,0.0553 -0.0142,0.89624 0.0933,1.86881 0.10738,0.97259 0.19495,2.84787 0.19454,4.16731 -0.002,4.40832 -0.72364,7.32776 -2.84473,11.49744 -0.99502,1.95606 -1.42144,2.98403 -1.4153,3.41191 l 0.009,0.61241 0.51219,-0.55445 c 0.2817,-0.30495 0.91085,-1.21938 1.39808,-2.03207 z m -3.55372,1.11585 c 0.0666,-1.12913 -0.3328,-2.37363 -1.01925,-3.1761 -0.67178,-0.78528 -0.93522,-0.54864 -0.93522,0.84009 0,1.09296 0.42831,2.19734 1.15532,2.97892 0.52995,0.56974 0.73749,0.40279 0.79915,-0.64291 z m -63.574317,-3.0868 c 0.259821,-0.56181 0.265818,-2.14024 0.01191,-3.13368 -0.10681,-0.41792 -0.419604,-1.02362 -0.695099,-1.34603 l -0.500901,-0.58619 -0.21649,0.5249 c -0.484263,1.17417 -0.19647,3.41813 0.57784,4.50548 0.42407,0.59553 0.561017,0.60144 0.822742,0.0356 z m 63.964147,-1.47714 c 0,-0.48014 -0.15694,-1.2799 -0.34876,-1.77725 -0.32659,-0.84682 -1.13578,-1.89899 -1.46045,-1.89899 -0.25365,0 -0.15464,2.08662 0.13103,2.76139 0.27115,0.64048 1.25653,1.78783 1.53543,1.78783 0.0785,0 0.14275,-0.39284 0.14275,-0.87298 z m -66.399173,-2.84514 c 0.543259,-1.26846 0.05452,-4.91751 -0.691451,-5.16248 -0.28755,-0.0944 -0.697886,0.86944 -0.849501,1.99545 -0.185218,1.37555 0.553254,3.73569 1.168881,3.73569 0.07069,0 0.238121,-0.2559 0.372071,-0.56866 z m 66.445253,-1.22479 c 0.13384,-0.38682 -0.33134,-1.99262 -0.74172,-2.5604 -0.21887,-0.30284 -0.63141,-0.66955 -0.91674,-0.81491 l -0.5188,-0.26432 v 0.55285 c 0,0.94933 0.40529,1.94288 1.07586,2.63735 0.67252,0.6965 0.97343,0.8193 1.1014,0.44943 z m -68.835982,-3.76186 c 0.473595,-1.2093 0.425235,-2.71933 -0.121879,-3.8056 -0.242347,-0.48117 -0.56016,-0.87486 -0.706253,-0.87486 -0.719839,0 -0.933493,3.40897 -0.304308,4.85544 0.384554,0.88406 0.739146,0.82926 1.13244,-0.17498 z m 68.612312,-0.30432 c 0,-0.47402 -0.67656,-2.0248 -1.15036,-2.63677 -0.8216,-1.06124 -1.31091,-0.73281 -0.97338,0.65337 0.1572,0.64555 0.41043,1.07435 0.92511,1.56642 0.73646,0.70413 1.19863,0.86491 1.19863,0.41698 z M 64.938872,205.689 c 0.5702,-0.99952 0.672031,-2.23285 0.297045,-3.59766 -0.171244,-0.62326 -0.370011,-1.1332 -0.441704,-1.1332 -0.594212,0 -1.35752,2.3481 -1.155815,3.55552 0.148898,0.89132 0.541692,1.86857 0.751048,1.86857 0.08468,0 0.331919,-0.31196 0.549426,-0.69323 z m 69.821548,0.34985 c 0,-0.6901 -0.74055,-2.27507 -1.26682,-2.71135 -0.66084,-0.54784 -0.86465,-0.55987 -0.86336,-0.0511 0.002,0.80522 0.3963,1.75086 1.00827,2.41821 0.6871,0.74929 1.12191,0.88265 1.12191,0.34413 z m -1.33821,-4.75679 c -0.15102,-0.43667 -0.55106,-1.05795 -0.88897,-1.38061 l -0.61441,-0.5867 v 0.56621 c 0,0.6961 0.5692,1.83475 1.10039,2.2013 0.572,0.39471 0.71681,0.10717 0.40299,-0.8002 z M 63.035425,201.1224 c 0.70844,-1.35347 1.133414,-4.17824 0.670959,-4.45982 -0.334603,-0.20373 -1.154659,0.76729 -1.463698,1.73317 -0.345339,1.07932 -0.380671,2.10117 -0.10007,2.89417 0.238996,0.67545 0.474731,0.6312 0.892812,-0.16752 z m -0.900073,-4.54533 c 0.419879,-0.22138 1.509511,-2.30339 1.683387,-3.21652 0.119079,-0.62536 0.105981,-0.65219 -0.231355,-0.47434 -0.738679,0.38948 -1.950304,1.92729 -2.157638,2.73851 -0.27843,1.08937 -0.075,1.36394 0.705606,0.95235 z m 47.761218,-55.18604 c 4.77827,-0.62866 6.82677,-1.5976 8.51986,-4.02989 1.96775,-2.82686 3.38074,-8.04405 3.44006,-12.70182 0.0271,-2.1312 0.0128,-2.22147 -0.46382,-2.9321 -0.98621,-1.47024 -2.39825,-2.12765 -6.0295,-2.80719 -3.22974,-0.60441 -6.00417,-0.7739 -11.00365,-0.67218 -4.737375,0.0963 -6.965441,0.32016 -9.806293,0.98487 -3.169315,0.74158 -4.660497,1.64788 -5.058312,3.07434 -0.33821,1.21272 -0.435973,4.59683 -0.207199,7.17233 0.455383,5.12664 1.911884,8.55178 4.293279,10.09617 1.486054,0.96374 3.386477,1.46825 7.346815,1.95036 1.43684,0.17491 7.28224,0.087 8.96876,-0.13489 z m -7.21356,-8.74167 c -1.02347,-0.4695 -1.60342,-1.1302 -2.32533,-2.64906 -0.460994,-0.9699 -0.49547,-1.19766 -0.49547,-3.2733 0,-2.00539 -0.03131,-2.23088 -0.309845,-2.23088 -0.170417,0 -1.508931,0.44575 -2.974479,0.99056 -2.301318,0.8555 -2.725209,0.96337 -3.108934,0.79112 -0.246368,-0.11059 -0.444302,-0.34708 -0.444302,-0.53085 0,-0.95704 3.759245,-3.13572 6.659962,-3.8598 5.073378,-1.26641 10.129208,-0.78064 11.283278,1.08412 0.78489,1.26822 0.32056,1.57342 -1.44856,0.95218 -1.24999,-0.43894 -1.25242,-0.43909 -1.12911,-0.0648 0.068,0.20628 0.16286,1.16242 0.21086,2.12476 0.13001,2.60801 -0.36142,4.27326 -1.68934,5.72434 -1.24217,1.35734 -2.64269,1.66921 -4.22873,0.94165 z m 47.63569,8.12269 c 0.9869,-0.0877 2.31993,-0.24965 2.9623,-0.35987 l 1.16795,-0.20037 -0.0995,-3.78979 c -0.11212,-4.27086 0.0923,-7.66908 0.76327,-12.69337 0.24566,-1.83938 0.49245,-3.7114 0.54842,-4.16004 l 0.10168,-0.8157 -1.04409,-0.14663 c -0.57423,-0.0806 -2.84226,-0.14059 -5.04003,-0.13322 -4.49155,0.0151 -7.21857,0.36663 -10.2514,1.32145 -2.90926,0.91591 -3.84361,1.9721 -4.15201,4.69341 -0.31256,2.75815 0.26398,7.93294 1.18878,10.67003 1.29256,3.82551 3.26014,5.15091 8.30508,5.59447 2.26837,0.19944 3.47839,0.20371 5.54949,0.0197 z m -8.96994,-8.24168 c -0.8808,-0.52903 -1.21266,-0.98878 -1.61328,-2.23491 -0.43341,-1.3482 -0.48044,-3.76649 -0.0975,-5.01975 0.14293,-0.46791 0.22657,-0.88356 0.18586,-0.92367 -0.16573,-0.16329 -0.96018,0.16796 -1.59509,0.66504 -1.14066,0.89305 -1.47911,0.60734 -0.81038,-0.68411 0.5039,-0.9731 1.65704,-1.86473 3.00554,-2.32398 1.01061,-0.34418 1.52048,-0.39896 3.66056,-0.39329 2.17277,0.006 2.61703,0.0578 3.52213,0.41162 0.56966,0.22276 1.30056,0.63409 1.62421,0.91407 0.95517,0.82623 1.68337,2.72234 1.16642,3.03711 -0.0933,0.0568 -0.60894,-0.2887 -1.1459,-0.76777 -0.65886,-0.58785 -1.27757,-0.9592 -1.90299,-1.14218 -0.50968,-0.14912 -0.95861,-0.23967 -0.99763,-0.20124 -0.039,0.0384 0.0257,0.55325 0.14358,1.14404 0.43708,2.18873 -0.033,4.82731 -1.1586,6.50298 -0.86646,1.28996 -2.73705,1.76667 -3.98683,1.01604 z m 16.27161,5.91963 c 0.60993,-0.65465 1.41514,-2.06599 2.00015,-3.50572 1.09126,-2.68567 2.13276,-7.42821 2.13423,-9.71844 l 6.8e-4,-1.10748 -0.48841,0.097 c -0.26861,0.0534 -1.04783,0.18392 -1.73159,0.29005 -2.41974,0.37554 -2.32231,0.29424 -2.56234,2.13818 -0.48892,3.75607 -0.4452,12.2 0.0631,12.2 0.11948,0 0.3823,-0.17715 0.58402,-0.39368 z m -31.1183,-16.05214 c 0.93017,-0.18565 3.74918,-0.16705 6.01453,0.0396 0.46711,0.0426 0.53225,-0.0254 0.79226,-0.82841 0.57026,-1.76087 2.66426,-3.26001 5.71394,-4.0907 3.45879,-0.94211 5.42699,-1.14561 11.14427,-1.1522 l 5.3723,-0.006 7e-5,-0.56533 c 9e-5,-0.7863 -0.28795,-0.83663 -4.7063,-0.82255 -4.27997,0.0137 -6.10481,0.24737 -10.36308,1.3272 -2.95246,0.74868 -4.15116,0.82342 -4.25863,0.26555 -0.2685,-1.39354 2.15989,-3.51452 5.55221,-4.84942 4.06826,-1.60085 9.84237,-2.13974 13.0643,-1.21924 0.34123,0.0974 0.6932,0.17725 0.78215,0.17725 0.24776,0 -0.0211,-4.17657 -0.42239,-6.56138 -0.34557,-2.05367 -1.27304,-5.801469 -1.56128,-6.308896 -0.12053,-0.21218 -0.24896,-0.179069 -0.75879,0.195629 -1.71608,1.261225 -3.50454,1.369719 -4.93982,0.299691 -1.16675,-0.869855 -1.6102,-2.873287 -0.97963,-4.42591 0.15875,-0.390874 0.24393,-0.754736 0.18927,-0.808577 -0.0546,-0.05384 -0.36772,0.103762 -0.69573,0.350233 -0.32798,0.246471 -1.07249,0.667738 -1.65445,0.93615 -0.91201,0.420635 -1.2788,0.488036 -2.65649,0.488134 -1.83673,1.32e-4 -2.69688,-0.320092 -4.0788,-1.518504 -0.97467,-0.84524 -1.03406,-1.358417 -0.25962,-2.243244 1.03917,-1.187289 1.90241,-2.386528 2.36434,-3.284589 1.3254,-2.576865 1.31596,-6.157324 -0.0222,-8.406922 -0.52829,-0.888135 -1.56735,-1.984515 -2.19375,-2.3148 -0.37747,-0.199014 -0.37133,-0.164952 0.11558,0.642894 0.92953,1.54216 1.30385,2.410317 1.60477,3.721869 0.76284,3.324935 -0.36486,6.536437 -3.32962,9.482139 -2.30223,2.287423 -5.23594,3.435298 -7.6496,2.99307 -1.27827,-0.234199 -2.68741,-0.892493 -2.76548,-1.29193 -0.0296,-0.151327 0.33906,-0.786488 0.81922,-1.411469 1.40007,-1.822383 1.86228,-2.912532 1.95245,-4.605004 0.0654,-1.226528 0.0183,-1.570534 -0.30403,-2.226688 -0.20973,-0.426825 -0.54069,-0.918119 -0.73543,-1.091763 -0.35181,-0.313665 -0.35336,-0.306142 -0.23961,1.157927 0.22354,2.877241 -0.6018,5.015302 -2.77042,7.176815 -1.99749,1.990955 -4.38624,3.132828 -6.55371,3.132828 -0.99186,0 -2.63653,-0.444594 -3.20361,-0.866007 l -0.42872,-0.318594 0.66708,-0.990135 c 2.29864,-3.411794 2.65147,-6.675786 1.03745,-9.597386 -0.44335,-0.802511 -1.6103,-1.96603 -1.79213,-1.786875 -0.0442,0.04346 0.12746,0.534935 0.3813,1.092174 1.3783,3.025819 1.34594,5.700002 -0.10429,8.613901 -0.86879,1.745626 -2.55373,3.544804 -3.94617,4.213711 -0.73303,0.352129 -1.15696,0.426578 -2.42897,0.426578 -2.46887,0 -3.04601,-0.687275 -2.27742,-2.712039 0.21057,-0.554697 0.35664,-1.234354 0.32462,-1.51035 -0.0556,-0.479929 -0.0823,-0.459848 -0.61264,0.460527 -0.71373,1.238773 -2.11619,2.523841 -3.40283,3.11796 -0.88927,0.410633 -1.23633,0.468931 -2.791516,0.468931 -1.641064,0 -1.849103,-0.03988 -2.738358,-0.52491 -0.529302,-0.288701 -1.042157,-0.652999 -1.139679,-0.809547 -0.129604,-0.208051 -0.01516,-0.749447 0.425335,-2.012159 0.575518,-1.649753 0.602839,-1.841736 0.606883,-4.264592 0.004,-2.435664 -0.0164,-2.581071 -0.511748,-3.637947 -0.28379,-0.605482 -0.74946,-1.29443 -1.034819,-1.53099 -0.557628,-0.462269 -0.945761,-0.566522 -0.787024,-0.211398 0.877032,1.962073 1.043466,2.557179 1.134198,4.05546 0.117397,1.938624 -0.143651,3.575929 -0.845948,5.305796 -1.4321,3.527486 -3.621589,5.430346 -6.049271,5.257331 -1.23158,-0.08774 -1.995651,-0.549638 -2.081219,-1.258081 -0.03131,-0.259206 0.06859,-1.014958 0.222,-1.679455 0.574522,-2.488596 0.244738,-5.806178 -0.656331,-6.602584 -0.346155,-0.305948 -0.349356,-0.298917 -0.216973,0.476838 0.222796,1.305575 0.122355,3.988668 -0.188789,5.043125 -0.667199,2.26111 -2.065095,4.074547 -3.662896,4.751728 -0.515131,0.218315 -1.465496,0.425766 -2.202022,0.480645 l -1.295757,0.09651 0.513657,0.631739 c 0.726731,0.893803 1.432603,2.863882 1.542862,4.306122 0.168304,2.20148 -0.577601,4.98617 -1.927803,7.19707 -0.77976,1.27683 -2.478123,3.09817 -3.555555,3.81303 l -0.857793,0.56911 -0.0648,2.25903 c -0.05129,1.78795 -0.159548,2.56901 -0.519183,3.7455 -0.249914,0.81756 -0.427261,1.51321 -0.3941,1.54587 0.03316,0.0327 1.565302,-0.18466 3.404764,-0.48295 1.839462,-0.2983 4.243569,-0.63703 5.342463,-0.75272 1.310964,-0.13804 1.997989,-0.28221 1.997989,-0.41932 0,-0.31444 0.989929,-1.07223 2.162534,-1.6554 6.757467,-3.36066 22.621469,-4.30039 32.231529,-1.90926 2.09941,0.52237 3.61215,1.26279 4.53179,2.2181 0.55873,0.58042 1.29862,1.99791 1.47699,2.82973 0.13915,0.64886 -0.0246,0.63328 2.13213,0.20284 z m -40.688603,-5.8471 c -0.372705,-0.95687 2.599817,-3.5082 5.818945,-4.99439 3.031918,-1.39977 6.117726,-1.9247 11.343088,-1.92953 7.79477,-0.007 15.68674,1.71803 17.69838,3.86895 0.74048,0.79177 0.97052,1.91021 0.51821,2.51962 -0.21089,0.28414 -0.44566,0.32887 -1.55399,0.29606 -0.71807,-0.0213 -2.42445,-0.23417 -3.79197,-0.47314 -3.7282,-0.65151 -6.64026,-0.94516 -10.61992,-1.07088 -5.499709,-0.17373 -9.698779,0.23684 -15.509939,1.51652 -2.587777,0.56988 -3.753712,0.64958 -3.902804,0.26679 z m 74.413413,5.86875 c 0.79477,-0.17095 0.94531,-0.56303 0.54884,-1.42927 -0.34435,-0.75232 -1.21503,-1.45597 -2.04815,-1.65524 -0.41968,-0.10038 -0.47369,-0.0406 -0.74018,0.82046 -0.40823,1.31893 -0.53796,2.02985 -0.40818,2.23674 0.12053,0.19213 1.80094,0.20946 2.64767,0.0272 z M 58.515772,108.96073 c 0.135212,-0.0847 -0.122734,-0.30515 -0.713799,-0.61002 -2.703393,-1.39447 -4.162777,-3.79208 -4.218676,-6.93085 l -0.01438,-0.80723 -0.336165,0.69989 c -1.075051,2.23822 0.343642,5.89884 2.762505,7.12802 1.194362,0.60693 2.08768,0.79129 2.520512,0.52019 z M 161.47621,90.805399 c 0.19686,-1.033883 -0.009,-2.721269 -0.43824,-3.593224 -0.58281,-1.183768 -1.83773,-2.484256 -2.90084,-3.006182 -0.50348,-0.247178 -0.95073,-0.414617 -0.9939,-0.372087 -0.0431,0.04252 0.28719,0.499024 0.73413,1.014429 1.66993,1.925736 2.58994,3.895233 2.87701,6.158839 0.11687,0.921526 0.15593,0.996059 0.37048,0.706985 0.13191,-0.177725 0.29002,-0.586668 0.35136,-0.90876 z M 85.688566,90.07401 c -0.04502,-0.170239 -0.08483,-0.07332 -0.08845,0.215382 -0.0036,0.288702 0.03323,0.42799 0.08187,0.309528 0.04865,-0.118459 0.05161,-0.35467 0.0066,-0.52491 z M 59.00636,86.365444 c 0.05592,-0.08914 -0.309734,-0.62062 -0.812573,-1.181049 -2.213712,-2.467247 -2.500376,-5.246527 -0.852613,-8.26632 0.284632,-0.521635 0.478197,-0.987159 0.430145,-1.0345 -0.206053,-0.203005 -0.983986,0.355932 -1.465985,1.053291 -0.920217,1.331374 -1.19807,2.31797 -1.19807,4.254072 0,1.549323 0.05525,1.860523 0.482385,2.717371 0.55526,1.113858 1.18922,1.768436 2.188255,2.259419 0.78959,0.388052 1.07976,0.434752 1.228456,0.197716 z M 74.12019,73.535963 c 0.01003,-2.019671 0.239973,-3.068323 0.999,-4.557088 1.119694,-2.19618 4.207331,-4.0441 7.023204,-4.203323 1.203608,-0.06807 1.331301,-0.222647 0.475583,-0.575768 -1.123256,-0.463522 -3.28103,-0.256552 -4.749224,0.455539 -1.395822,0.676991 -3.045366,2.289028 -3.755957,3.670557 -0.582263,1.132035 -1.037693,3.459114 -0.891249,4.553969 0.125711,0.939848 0.626351,2.624564 0.779922,2.624529 0.05989,-1.3e-5 0.113312,-0.8858 0.118721,-1.968415 z"
       id="path1" /></g></svg>
