<?xml version="1.0" encoding="UTF-8"?>
<!-- Created with Inkscape (http://www.inkscape.org/) -->
<svg id="SVGRoot" width="100px" height="100px" enable-background="new" version="1.1" viewBox="0 0 100 100" xmlns="http://www.w3.org/2000/svg" xmlns:xlink="http://www.w3.org/1999/xlink">
 <defs>
  <clipPath id="patternClipPath">
   <rect id="clipPathRect" width="100" height="100" color="#000000" enable-background="accumulate" fill="#ffff00"/>
  </clipPath>
  <marker id="Arrow2Mend" overflow="visible" orient="auto">
   <path transform="scale(.6) rotate(180) translate(0)" d="m8.7186 4.0337-10.926-4.0177 10.926-4.0177c-1.7455 2.3721-1.7354 5.6175-6e-7 8.0354z" fill="#000000" fill-rule="evenodd" stroke="#000000" stroke-linejoin="round" stroke-width=".625"/>
  </marker>
 </defs>
 <g id="patternLayer">
  <use id="fullPatternClone" transform="translate(200 -100)" width="100" height="100" xlink:href="#fullPattern"/>
  <use transform="translate(0 100)" width="100%" height="100%" xlink:href="#fullPatternClone"/>
  <use transform="translate(0 200)" width="100%" height="100%" xlink:href="#fullPatternClone"/>
  <use transform="translate(100)" width="100%" height="100%" xlink:href="#fullPatternClone"/>
  <use transform="translate(100 100)" width="100%" height="100%" xlink:href="#fullPatternClone"/>
  <use transform="translate(100 200)" width="100%" height="100%" xlink:href="#fullPatternClone"/>
  <use transform="translate(200)" width="100%" height="100%" xlink:href="#fullPatternClone"/>
  <use transform="translate(200 100)" width="100%" height="100%" xlink:href="#fullPatternClone"/>
  <use transform="translate(200 200)" width="100%" height="100%" xlink:href="#fullPatternClone"/>
  <use id="phantomBottom" width="100%" height="100%" opacity=".3" xlink:href="#designBottom"/>
  <use id="phantomTop" width="100%" height="100%" opacity=".3" xlink:href="#designTop"/>
  <g id="infoGroup">
   <rect x="-348.84" y="-380.86" width="526.66" height="360.01" fill="#ffffff" fill-rule="evenodd" style="paint-order:normal"/>
   <text x="-326.82172" y="-349.80621" fill="#000000" font-family="sans-serif" letter-spacing="0px" word-spacing="0px" style="line-height:0%" xml:space="preserve"><tspan x="-326.82172" y="-349.80621" font-family="sans-serif" font-size="23.669px" font-weight="bold" style="line-height:1.25">Seamless pattern</tspan></text>
   <flowRoot id="infoText" transform="translate(-709.3 -231.7)" fill="#000000" font-family="sans-serif" letter-spacing="0px" word-spacing="0px" style="line-height:0.01%" xml:space="preserve"><flowRegion><rect x="383.76" y="-110.45" width="491.71" height="324.99" ry=".97061"/></flowRegion><flowPara font-size="12.5px" style="line-height:1.25">Use the layers "<flowSpan font-family="Cantarell" font-weight="bold">Pattern Foreground</flowSpan>" and "<flowSpan font-family="Cantarell" font-weight="bold">Pattern Background</flowSpan>" on the pattern page to create your design. The separation into two layers will make it easier for you to create and edit overlapping content like a foreground drawing with a background fill.</flowPara><flowPara font-family="Cantarell" font-size="12.5px" style="line-height:1.25"> </flowPara><flowPara font-family="Cantarell" font-size="12.5px" style="line-height:1.25">The layer named "<flowSpan font-family="Cantarell" font-weight="bold">Pattern</flowSpan>" is for using the seamless pattern, copying it to other documents, adding opacity etc. </flowPara><flowPara font-family="Cantarell" font-size="12.5px" style="line-height:1.25">Select the group on the page, and use <flowSpan font-family="Cantarell" font-weight="bold">Object-&gt;Pattern-&gt;Objects to Pattern</flowSpan> to convert your creation into a fill pattern.</flowPara><flowPara font-family="Cantarell" font-size="12.5px" style="line-height:1.25"> </flowPara><flowPara font-family="Cantarell" font-size="12.5px" style="line-height:1.25">The layer "<flowSpan font-family="Cantarell" font-weight="bold">Preview Background</flowSpan>" provides an easy way to preview your creation if it contains transparency.</flowPara><flowPara font-family="Cantarell" font-size="12.5px" style="line-height:1.25">Changing this layer's visibility will not alter the pattern.</flowPara><flowPara font-family="Cantarell" font-size="12.5px" style="line-height:1.25"> </flowPara><flowPara font-family="Cantarell" font-size="12.5px" style="line-height:1.25">If an object is moved outside the pattern/page limits, it will be difficult to select it. </flowPara><flowPara font-family="Cantarell" font-size="12.5px" style="line-height:1.25">To move it back onto the page, select the object using the rubberband selection (click and drag a selection box) with the selection tool.</flowPara><flowPara font-family="Cantarell" font-size="12.5px" style="line-height:1.25">Then move it back onto the page, using the arrow keys or the "Align and Distribute" dialog (Shift+Ctrl+A).</flowPara></flowRoot>
   <path d="m-354.49-359.49h-6.1704v411.01h229.61" color="#000000" enable-background="accumulate" fill="none" marker-end="url(#Arrow2Mend)" stroke="#000000" stroke-width="3.7795" style="text-decoration-line:none"/>
  </g>
  <g id="textPreview" transform="translate(200)" fill="#000000">
   <path d="m-29.565 100v-7.167h2.0073v4.5113h1.9176v-4.2422h2.0073v4.2422h4.3665v2.6558z"/>
   <path d="m-22.743 87.818q0 0.77256 0.26214 1.1658 0.26214 0.38628 0.77256 0.38628 0.46906 0 0.73808-0.3104 0.26214-0.31731 0.26214-0.87604 0-0.6967-0.49667-1.1727-0.50355-0.47596-1.2555-0.47596h-0.28278zm-0.93124-3.7732h4.4078v2.4902h-1.145q0.70359 0.49666 1.0277 1.1175 0.31735 0.62082 0.31735 1.5107 0 1.2002-0.69671 1.9521-0.70359 0.74498-1.821 0.74498-1.3589 0-1.9936-0.93123-0.63462-0.93812-0.63462-2.9385v-1.4555h-0.19316q-0.58628 0-0.8553 0.46216-0.2759 0.46217-0.2759 1.4417 0 0.79327 0.15859 1.4762 0.15868 0.6829 0.47603 1.2692h-1.8832q-0.19317-0.79327-0.28966-1.5934-0.10355-0.80016-0.10355-1.6003 0-2.0901 0.82778-3.0144 0.8209-0.93123 2.6764-0.93123z"/>
   <path d="m-26.751 75.726h1.8762q-0.33111 0.79327-0.49658 1.5314-0.16556 0.73808-0.16556 1.3934 0 0.7036 0.17932 1.0485 0.17243 0.338 0.53803 0.338 0.29663 0 0.45531-0.25522 0.15858-0.26212 0.23453-0.93122l0.0624-0.43458q0.2415-1.8969 0.79329-2.5522 0.55189-0.65531 1.7314-0.65531 1.2347 0 1.8555 0.91054 0.62086 0.91053 0.62086 2.7178 0 0.76568-0.12419 1.5865-0.11722 0.81396-0.35872 1.6762h-1.8762q0.35872-0.73809 0.53803-1.5107 0.17941-0.77947 0.17941-1.5796 0-0.72429-0.20005-1.0899-0.20004-0.3656-0.59325-0.3656-0.33111 0-0.4897 0.25524-0.16555 0.24832-0.25525 1.0002l-0.055 0.43458q-0.20692 1.6486-0.76568 2.3108-0.55868 0.66221-1.6968 0.66221-1.2279 0-1.8211-0.84156-0.59325-0.84155-0.59325-2.5798 0-0.6829 0.10355-1.4348 0.10346-0.75188 0.32415-1.6348z"/>
   <path d="m-29.186 70.677h2.1935v-2.5454h1.7659v2.5454h3.2765q0.53804 0 0.7312-0.21383 0.1862-0.21384 0.1862-0.84846v-1.2692h1.7659v2.1177q0 1.4624-0.60701 2.0763-0.61398 0.60703-2.0763 0.60703h-3.2765v1.2278h-1.7659v-1.2278h-2.1935z"/>
   <path d="m-20.384 59.233h4.056v2.4695h-10.664v-2.4695h1.1313q-0.67598-0.51044-0.99334-1.1313-0.32423-0.62081-0.32423-1.4279 0-1.4279 1.1383-2.3453 1.1312-0.91744 2.9178-0.91744 1.7865 0 2.9247 0.91744 1.1313 0.91743 1.1313 2.3453 0 0.80707-0.31735 1.4279-0.32414 0.62083-1.0001 1.1313zm-5.0011-1.6417q0 0.79327 0.58637 1.2209 0.5794 0.42078 1.6762 0.42078 1.0967 0 1.6831-0.42078 0.5794-0.42766 0.5794-1.2209t-0.5794-1.2072q-0.5794-0.42078-1.6831-0.42078t-1.6832 0.42078q-0.5794 0.41388-0.5794 1.2072z"/>
   <path d="m-24.889 45.837q-0.1518 0.3242-0.22077 0.6484-0.0761 0.31731-0.0761 0.64151 0 0.95193 0.61389 1.4693 0.6071 0.51045 1.7453 0.51045h3.5593v2.4695h-7.7257v-2.4695h1.2692q-0.7588-0.47595-1.1037-1.0899-0.35185-0.62081-0.35185-1.4831 0-0.12416 0.0138-0.26902 9e-3 -0.14486 0.0413-0.42078l2.235-7e-3z"/>
   <path d="m-23.15 36.883h0.7036v5.7736q0.86914-0.0897 1.3037-0.62772 0.43457-0.53804 0.43457-1.5038 0-0.77948-0.22765-1.5934-0.23453-0.82086-0.70359-1.6831h1.9038q0.33111 0.87604 0.49667 1.7521 0.17243 0.87604 0.17243 1.7521 0 2.097-1.0623 3.2627-1.0692 1.1589-2.9937 1.1589-1.8901 0-2.973-1.1382-1.083-1.1451-1.083-3.1455 0-1.8211 1.0968-2.911 1.0968-1.0968 2.9317-1.0968zm-0.8209 2.5385q-0.70359 0-1.1312 0.41388-0.43458 0.40698-0.43458 1.0692 0 0.71739 0.40697 1.1658 0.40009 0.44836 1.1588 0.55873z"/>
   <path d="m-26.992 35.994v-2.4695l5.3391-1.9245-5.3391-1.9176v-2.4764l7.7257 3.042v2.7109z"/>
   <path d="m-26.992 25.805v-2.4695h7.7257v2.4695zm-3.0075 0v-2.4695h2.0142v2.4695z"/>
   <path d="m-23.15 13.237h0.7036v5.7736q0.86914-0.0897 1.3037-0.62772 0.43457-0.53805 0.43457-1.5038 0-0.77947-0.22765-1.5934-0.23453-0.82085-0.70359-1.6831h1.9038q0.33111 0.87604 0.49667 1.7521 0.17243 0.87605 0.17243 1.7521 0 2.097-1.0623 3.2628-1.0692 1.1588-2.9937 1.1588-1.8901 0-2.973-1.1382-1.083-1.1451-1.083-3.1455 0-1.8211 1.0968-2.9109 1.0968-1.0968 2.9317-1.0968zm-0.8209 2.5384q-0.70359 0-1.1312 0.41389-0.43458 0.40697-0.43458 1.0692 0 0.71738 0.40697 1.1658 0.40009 0.44837 1.1588 0.55874z"/>
   <path d="m-26.992 12.065v-2.4005l5.3252-1.2968-5.3252-1.3037v-2.0625l5.2701-1.2968-5.2701-1.3037v-2.4005l7.7257 2.0349v2.6971l-5.3115 1.3037 5.3115 1.2968v2.6971z"/>
  </g>
  <g id="fullPattern" clip-path="url(#patternClipPath)">
   <g id="designBottom">
    <path d="m9.375 10.375c0.90164-1.2958 2.2431-2.2795 3.75-2.75 1.016-0.31721 2.1205-0.40266 3.148-0.12506 1.0275 0.2776 1.9687 0.93988 2.477 1.8751 0.53217 0.97913 0.55033 2.2039 0.1143 3.2295-0.43604 1.0256-1.3011 1.8459-2.3198 2.2976-1.0187 0.45175-2.1799 0.54569-3.2751 0.3401-1.0953-0.20559-2.1255-0.70168-3.0193-1.3672-0.53007-0.39466-1.0332-0.87572-1.25-1.5-0.11643-0.33526-0.14372-0.70102-0.078313-1.0498s0.22334-0.67986 0.45331-0.95016z" fill="none" opacity=".5" stroke="#000000"/>
    <path d="m47.375 17.875c-0.76665 0.25254-1.4668 0.70418-2.0129 1.2985s-0.93712 1.3301-1.1241 2.1153-0.16949 1.6182 0.05022 2.3949c0.21971 0.77669 0.64118 1.4954 1.2118 2.0663 0.73476 0.73519 1.7167 1.2189 2.7474 1.3533 1.0307 0.13444 2.1039-0.0812 3.0026-0.60333" fill="none" opacity=".5" stroke="#000000"/>
    <path d="m57.875 19.375c-0.02751-0.82919-0.4547-1.6361-1.125-2.125-0.58086-0.42366-1.3268-0.60515-2.0413-0.52501-0.71446 0.08014-1.393 0.41548-1.9118 0.91313-0.51887 0.49764-0.87922 1.1524-1.0519 1.8503-0.17264 0.69791-0.16051 1.437 5e-3 2.1366 0.15483 0.65461 0.44463 1.2798 0.86448 1.8053 0.41986 0.52555 0.97111 0.94934 1.5967 1.1966 0.62558 0.24723 1.325 0.31425 1.981 0.16577 0.65604-0.14848 1.2646-0.51572 1.6828-1.0427 0.39127-0.49311 0.60995-1.1205 0.60995-1.75s-0.21868-1.2569-0.60995-1.75" fill="none" opacity=".5" stroke="#000000"/>
    <path d="m60.375 14.75c0.9068 1.222 1.5505 2.6383 1.875 4.125 0.17981 0.82392 0.26291 1.6687 0.48582 2.482s0.6063 1.6154 1.2642 2.143c0.71539 0.57374 1.707 0.75797 2.6007 0.5525 0.89373-0.20546 1.6836-0.77801 2.2226-1.5199 0.53905-0.74189 0.8363-1.6438 0.92539-2.5565 0.089087-0.91271-0.023352-1.8372-0.24873-2.7261-0.42015-1.6571-1.28-3.2606-2.6715-4.2537-0.69576-0.49654-1.5151-0.82878-2.366-0.90995-0.85091-0.081173-1.7316 0.095378-2.4625 0.53868-0.78036 0.47333-1.3727 1.2479-1.625 2.125z" fill="none" opacity=".5" stroke="#000000"/>
    <path d="m70.25 8.625 5.125 11.625" fill="none" opacity=".5" stroke="#000000"/>
    <path d="m81.375 14.75-5.5 2.875" fill="none" opacity=".5" stroke="#000000"/>
    <path d="m78.625 11.375-4.5 1.625" fill="none" opacity=".5" stroke="#000000"/>
    <path d="m87.125 49.375-37.375 10.75" fill="none" opacity=".5" stroke="#000000"/>
    <path d="m51.375 68.75c1.5903 0.77248 3.5347 0.77248 5.125 0 1.5495-0.75266 2.679-2.1335 3.8578-3.3896 0.58941-0.62804 1.2064-1.237 1.9112-1.7321 0.70477-0.49511 1.5044-0.87495 2.356-1.0033 0.3724-0.05613 0.75382-0.06365 1.125 0 0.70147 0.1203 1.3412 0.49096 1.879 0.95709 0.53783 0.46612 0.98413 1.0269 1.4207 1.589 0.4366 0.56206 0.86935 1.1317 1.3859 1.6213s1.1264 0.9003 1.8144 1.0826c0.56241 0.14901 1.1622 0.13977 1.7274 0.0018 0.56523-0.13796 1.0962-0.40226 1.5653-0.74652 0.93809-0.68851 1.6152-1.6788 2.1361-2.7193s0.90165-2.1446 1.3645-3.2123c0.46282-1.0676 1.0195-2.1154 1.8317-2.9487 0.7811-0.80136 1.7872-1.3811 2.8722-1.655s2.2457-0.24129 3.3136 0.09323c1.0679 0.33452 2.0398 0.9699 2.7746 1.8139 0.73481 0.84402 1.2303 1.8941 1.4146 2.9979" fill="none" opacity=".5" stroke="#000000"/>
    <path d="m49.625 52.75c-4.3514 1.9652-7.8825 5.6797-9.625 10.125-0.80894 2.0637-1.2402 4.3705-0.625 6.5 0.34347 1.189 0.99728 2.2676 1.75 3.25 1.8517 2.4167 4.3524 4.3313 7.1686 5.4883 2.8161 1.157 5.9406 1.5535 8.9564 1.1367" fill="none" opacity=".5" stroke="#000000"/>
    <path d="m9 66.75c2.1926 0.51392 4.5411 0.34015 6.6342-0.49086 2.0931-0.831 3.9212-2.3155 5.1641-4.1934 1.2429-1.8779 1.8951-4.1408 1.8422-6.3922s-0.81068-4.4811-2.1405-6.2985c-1.3603-1.8591-3.3128-3.277-5.5-4-1.4844-0.49063-3.0887-0.66463-4.625-0.375-1.8946 0.35718-3.6204 1.4116-4.9481 2.8095-1.3277 1.3979-2.2745 3.1263-2.9269 4.9405-0.43201 1.2014-0.74257 2.4966-0.5 3.75 0.14114 0.72928 0.47008 1.4214 0.94643 1.9914s1.0991 1.0166 1.7917 1.2849c0.69264 0.26836 1.4537 0.35792 2.1897 0.25768s1.4454-0.39007 2.0411-0.83388 1.0763-1.0407 1.3829-1.7173 0.43845-1.4315 0.37942-2.1719c-0.05903-0.74046-0.30884-1.4649-0.71874-2.0844-0.4099-0.61948-0.97903-1.1326-1.6375-1.4765" fill="none" opacity=".5" stroke="#000000"/>
    <path d="m118.5 25.75c-2.1386 1.0895-4.6418 1.4471-7 1-2.0528-0.38921-3.9426-1.3536-5.8882-2.1155-1.9456-0.76188-4.0708-1.3317-6.1118-0.88453-1.2752 0.27939-2.443 0.9457-3.444 1.7838-1.0009 0.83807-1.8461 1.8458-2.6357 2.8854-1.5793 2.0792-3.012 4.3615-5.1703 5.8308-1.8068 1.23-4.0547 1.7968-6.2287 1.5703-2.174-0.22646-4.2568-1.2443-5.7713-2.8203" fill="none" opacity=".5" stroke="#000000"/>
    <path d="m85 41.5c0.72597-3.4349 2.8974-6.5401 5.8745-8.4008 2.9771-1.8607 6.7198-2.4518 10.126-1.5992 2.1772 0.54508 4.1721 1.6367 6.135 2.725 1.9629 1.0884 3.9468 2.1951 6.115 2.775 2.6288 0.70304 5.4614 0.58975 8.0453-0.2637 2.584-0.85345 4.914-2.4373 6.7047-4.4863 1.6839-1.9268 2.8955-4.2635 3.5-6.75" fill="none" opacity=".5" stroke="#000000"/>
    <path d="m24.5 22.75c2.6222-1.5903 4.4332-4.4497 4.75-7.5 0.09981-0.96091 0.0596-1.9301 0.0774-2.896 0.017798-0.96592 0.096619-1.9446 0.4226-2.854 0.32932-0.91874 0.90258-1.7372 1.585-2.4349 0.68241-0.69775 1.4734-1.2807 2.29-1.8151 3.1247-2.0447 6.6864-3.418 10.375-4" fill="none" opacity=".5" stroke="#000000"/>
    <path d="m29.125 16.75c0.5602-0.59412 1.3183-0.99842 2.1237-1.1327s1.6537 0.0023 2.3763 0.38267c1.0274 0.54075 1.7558 1.5253 2.75 2.125 1.0149 0.61217 2.2692 0.78126 3.4313 0.54872 1.1622-0.23254 2.2307-0.84976 3.0812-1.6752 1.701-1.6509 2.4937-4.0319 2.8625-6.3735 0.54419-3.4551 0.28547-7.0341-0.75-10.375" fill="none" opacity=".5" stroke="#000000"/>
    <path d="m29.375 15.75c0.22636-1.473 1.099-2.835 2.3426-3.6562 1.2436-0.82126 2.8388-1.089 4.2824-0.71878 0.5668 0.14536 1.1052 0.38226 1.6579 0.57447 0.55267 0.19221 1.1334 0.34131 1.7171 0.30053 0.87757-0.06131 1.7105-0.5803 2.1522-1.3411 0.44173-0.76076 0.47958-1.7414 0.0978-2.5339" fill="none" opacity=".5" stroke="#000000"/>
    <path d="m12.993 74.511c3.7297-0.88406 7.6591-0.91452 11.402-0.08839 0.24977 0.05513 0.50012 0.11421 0.75542 0.12982 0.25531 0.01561 0.51884-0.01456 0.74718-0.12982 0.20666-0.10432 0.37963-0.27526 0.60029-0.34528 0.11033-0.03501 0.23288-0.0422 0.34045 5.41e-4 0.05379 0.02137 0.10298 0.05509 0.14019 0.09941 0.03722 0.04432 0.06213 0.09937 0.06811 0.15693 3e-3 0.02933 0.0013 0.05892 0 0.08839-0.01513 0.3549 0.04794 0.70775 0.08839 1.0607 0.20655 1.802-0.17576 3.6129-0.53033 5.3917-0.23495 1.1787-0.4586 2.3596-0.70711 3.5355-0.17267 0.81702-0.35825 1.6398-0.35355 2.4749 0.0015 0.26904 0.02076 0.54959-0.08839 0.7955-0.09256 0.20852-0.27262 0.37163-0.47977 0.4672-0.20716 0.09557-0.43983 0.12717-0.66775 0.11708-0.45583-0.0202-0.88695-0.19977-1.3274-0.31912-1.086-0.29428-2.2336-0.22234-3.3552-0.13318-1.1216 0.08916-2.2622 0.19222-3.3623-0.04359-0.79113-0.16958-1.54-0.51071-2.3371-0.6491-0.39859-0.0692-0.81034-0.08639-1.2064-0.0041-0.39608 0.08233-0.7766 0.26902-1.0526 0.56478-0.03175 0.03402-0.06211 0.06943-0.09619 0.10112-0.03407 0.03169-0.0723 0.05981-0.11572 0.07655-0.04342 0.01674-0.09255 0.02139-0.13666 0.0066-0.02206-0.0074-0.04259-0.0196-0.05903-0.03607-0.01644-0.01646-0.0287-0.03722-0.03434-0.05979-0.0072-0.02876-0.0036-0.05897 0-0.08839 0.04631-0.38149 0.07831-0.76489 0.08839-1.149 0.01237-0.47126 0-0.94279 0-1.4142v-6.8943c0-0.42793-0.01547-0.85584-0.05162-1.2822-0.03614-0.4264-0.08523-0.85584-0.03677-1.281 0.04251-0.37297 0.16378-0.73678 0.35355-1.0607" fill="none" opacity=".5" stroke="#000000"/>
    <path d="m72.478 91.04c-0.08022-0.31744-0.08022-0.65483 0-0.97227 0.06174-0.2443 0.16919-0.47412 0.26516-0.70711 0.33502-0.81327 0.53356-1.6754 0.81802-2.5077s0.6695-1.6554 1.3033-2.2653c0.28948-0.27855 0.62443-0.50612 0.97227-0.70711 0.48064-0.27772 0.99278-0.50843 1.534-0.632 0.54118-0.12356 1.1136-0.13686 1.648 0.01328 0.34376 0.09657 0.66598 0.25842 0.97227 0.44194 0.98906 0.59259 1.8244 1.413 2.5633 2.2981 0.62408 0.74756 1.1864 1.5467 1.6794 2.3865" fill="none" opacity=".5" stroke="#000000"/>
    <path d="m89.272 87.77c-0.13567-1.646-0.19468-3.2983-0.17678-4.9497 0.0084-0.77433 0.03567-1.5606 0.272-2.298 0.11816-0.36872 0.28887-0.72262 0.52366-1.0305s0.53508-0.56892 0.88372-0.73735c0.43906-0.21212 0.94206-0.27124 1.4272-0.22188 0.48511 0.04935 0.95463 0.20299 1.4013 0.39866 1.0707 0.46906 2.0259 1.183 2.8284 2.0329 0.71534 0.75762 1.3138 1.6254 1.7678 2.5633" fill="none" opacity=".5" stroke="#000000"/>
    <path d="m84.676 95.106c1.5647-0.48282 3.1599-0.86685 4.773-1.149 0.83302-0.14573 1.6826-0.26777 2.4542-0.6138 0.38582-0.17302 0.74935-0.40235 1.0497-0.69998 0.30034-0.29763 0.53599-0.66563 0.65036-1.0727 0.07035-0.2504 0.09429-0.51102 0.13006-0.76865 0.03577-0.25762 0.08491-0.51751 0.20072-0.75039 0.05791-0.11644 0.13241-0.22527 0.2253-0.31629 0.09289-0.09102 0.20452-0.16394 0.3277-0.20563 0.12319-0.04169 0.25803-0.05139 0.38443-0.02079 0.1264 0.0306 0.24359 0.10244 0.32278 0.2056 0.0573 0.07465 0.09379 0.16342 0.11908 0.25406 0.02529 0.09064 0.03995 0.18385 0.05769 0.27626 0.10559 0.54992 0.32037 1.0719 0.53033 1.591 0.36495 0.90231 0.72048 1.8129 0.94126 2.7608 0.22078 0.94795 0.3037 1.9403 0.1194 2.896-0.18904 0.98028-0.66399 1.9067-1.3649 2.6176-0.70091 0.71092-1.627 1.201-2.6126 1.3599-1.2145 0.19579-2.4659-0.10814-3.582-0.62565-1.1161-0.51752-2.1214-1.2412-3.1355-1.9376-0.50394-0.34605-1.0182-0.69202-1.4179-1.1546-0.19983-0.23129-0.36926-0.49102-0.48118-0.77545s-0.16511-0.59431-0.13387-0.89836c0.03703-0.36042 0.19474-0.70738 0.44194-0.97227z" fill="none" opacity=".5" stroke="#000000"/>
   </g>
   <g id="designBottomGenerator">
    <use transform="translate(-100 -100)" width="100%" height="100%" xlink:href="#designBottom"/>
    <use transform="translate(0 -100)" width="100%" height="100%" xlink:href="#designBottom"/>
    <use transform="translate(100 -100)" width="100%" height="100%" xlink:href="#designBottom"/>
    <use transform="translate(-100)" width="100%" height="100%" xlink:href="#designBottom"/>
    <use width="100%" height="100%" xlink:href="#designBottom"/>
    <use transform="translate(100)" width="100%" height="100%" xlink:href="#designBottom"/>
    <use transform="translate(-100 100)" width="100%" height="100%" xlink:href="#designBottom"/>
    <use transform="translate(0 100)" width="100%" height="100%" xlink:href="#designBottom"/>
    <use transform="translate(100 100)" width="100%" height="100%" xlink:href="#designBottom"/>
   </g>
   <g id="designTopGenerator">
    <use transform="translate(-100 -100)" width="100%" height="100%" xlink:href="#designTop"/>
    <use transform="translate(0 -100)" width="100%" height="100%" xlink:href="#designTop"/>
    <use transform="translate(100 -100)" width="100%" height="100%" xlink:href="#designTop"/>
    <use transform="translate(-100)" width="100%" height="100%" xlink:href="#designTop"/>
    <use width="100%" height="100%" xlink:href="#designTop"/>
    <use transform="translate(100)" width="100%" height="100%" xlink:href="#designTop"/>
    <use transform="translate(-100 100)" width="100%" height="100%" xlink:href="#designTop"/>
    <use transform="translate(0 100)" width="100%" height="100%" xlink:href="#designTop"/>
    <use transform="translate(100 100)" width="100%" height="100%" xlink:href="#designTop"/>
   </g>
  </g>
 </g>
</svg>
